<!DOCTYPE svg PUBLIC "-//W3C//DTD SVG 20010904//EN" "http://www.w3.org/TR/2001/REC-SVG-20010904/DTD/svg10.dtd">
<svg version="1.0" xmlns="http://www.w3.org/2000/svg" width="200px" height="200px" viewBox="0 0 2000 2000" preserveAspectRatio="xMidYMid meet">
<g id="layer1" fill="#ffffff" stroke="none">
 <path d="M450 1831 c-15 -30 -12 -66 8 -84 13 -12 37 -17 79 -17 61 0 61 0 108 -52 47 -52 105 -154 105 -183 0 -13 -36 -15 -282 -15 -156 0 -299 -5 -318 -10 -40 -11 -104 -71 -119 -113 -7 -19 -11 -205 -11 -545 0 -480 2 -520 19 -557 22 -50 71 -92 114 -100 18 -3 410 -4 873 -3 l841 3 37 29 c77 58 76 47 76 621 0 304 -4 524 -10 545 -12 45 -75 107 -121 120 -19 6 -162 10 -321 10 l-288 0 17 43 c24 61 60 116 106 165 40 40 43 42 103 42 46 0 65 4 77 18 22 24 21 65 -1 85 -17 15 -70 17 -550 17 -515 0 -532 -1 -542 -19z m770 -105 c0 -2 -15 -27 -34 -55 -18 -29 -41 -77 -51 -109 -9 -31 -18 -63 -21 -70 -3 -9 -31 -12 -116 -10 l-112 3 -11 45 c-13 48 -45 118 -76 162 -11 14 -19 29 -19 32 0 3 99 6 220 6 121 0 220 -2 220 -4z m-270 -395 c-15 -29 -12 -62 7 -83 16 -17 3 -18 -395 -18 l-412 0 0 44 c0 79 -19 76 421 76 382 0 390 0 379 -19z m884 3 c10 -9 16 -33 16 -60 l0 -44 -412 0 c-398 0 -411 1 -395 18 10 10 17 29 17 42 0 13 -7 32 -17 42 -16 17 -3 18 380 18 346 0 398 -2 411 -16z m16 -633 l0 -400 -22 -15 c-20 -14 -115 -16 -828 -16 -713 0 -808 2 -828 16 l-22 15 0 400 0 399 850 0 850 0 0 -399z"/>
 </g>

</svg>