<!DOCTYPE svg PUBLIC "-//W3C//DTD SVG 20010904//EN" "http://www.w3.org/TR/2001/REC-SVG-20010904/DTD/svg10.dtd">
<svg version="1.0" xmlns="http://www.w3.org/2000/svg" width="200px" height="200px" viewBox="0 0 2000 2000" preserveAspectRatio="xMidYMid meet">
<g id="layer1" fill="#ffffff" stroke="none">
 <path d="M901 1789 c-83 -66 -73 -74 99 -74 172 0 183 8 100 74 -44 35 -59 41 -100 41 -41 0 -55 -6 -99 -41z"/>
 <path d="M822 1688 c-18 -18 -14 -63 6 -81 16 -14 43 -17 171 -17 86 0 161 5 172 10 22 12 27 68 7 88 -8 8 -62 12 -178 12 -116 0 -170 -4 -178 -12z"/>
 <path d="M817 1562 c-21 -23 -21 -41 -1 -70 15 -21 21 -22 183 -22 150 0 170 2 184 18 19 21 21 45 7 73 -10 18 -23 19 -184 19 -155 0 -175 -2 -189 -18z"/>
 <path d="M786 1448 c-3 -7 -7 -30 -11 -51 -3 -22 -29 -82 -57 -135 -105 -198 -126 -243 -137 -299 -32 -160 8 -293 118 -397 95 -88 229 -126 373 -106 233 33 368 198 356 434 -6 106 -22 150 -112 306 -34 59 -70 137 -82 180 l-22 75 -58 0 -59 0 -3 -48 c-4 -66 26 -151 97 -273 32 -56 68 -127 80 -158 72 -194 -52 -377 -258 -380 -227 -3 -360 192 -272 398 11 25 45 88 75 140 68 118 98 198 100 268 l1 53 -63 3 c-44 2 -63 -1 -66 -10z"/>
 <path d="M350 1219 c-34 -66 -27 -78 74 -127 49 -24 95 -41 103 -38 17 7 56 91 51 112 -3 15 -167 94 -194 94 -7 0 -23 -18 -34 -41z"/>
 <path d="M1515 1225 c-67 -27 -80 -37 -83 -58 -4 -32 28 -101 49 -105 21 -4 189 68 196 83 8 23 -40 110 -62 112 -11 1 -56 -13 -100 -32z"/>
 <path d="M274 907 c-3 -8 -4 -39 -2 -68 l3 -54 104 -3 c126 -3 133 1 129 77 l-3 56 -113 3 c-89 2 -113 0 -118 -11z"/>
 <path d="M1504 907 c-3 -8 -4 -39 -2 -68 l3 -54 104 -3 c126 -3 133 1 129 77 l-3 56 -113 3 c-89 2 -113 0 -118 -11z"/>
 <path d="M423 604 c-42 -31 -73 -62 -73 -72 0 -29 49 -92 71 -92 22 0 179 108 179 122 0 5 -14 29 -30 54 -21 30 -38 44 -53 43 -12 0 -55 -25 -94 -55z"/>
 <path d="M1436 619 c-15 -22 -26 -48 -24 -57 4 -20 145 -122 169 -122 19 0 79 73 79 95 0 16 -154 125 -178 125 -12 0 -30 -16 -46 -41z"/>
 <path d="M672 443 c-31 -45 -72 -131 -72 -152 0 -22 63 -61 99 -61 24 0 104 140 99 173 -3 20 -68 66 -95 67 -6 0 -20 -12 -31 -27z"/>
 <path d="M1245 447 c-22 -13 -41 -31 -43 -42 -3 -25 74 -164 95 -172 19 -7 102 32 109 52 9 22 -83 185 -104 185 -9 0 -35 -11 -57 -23z"/>
 <path d="M934 377 c-2 -7 -4 -54 -2 -103 l3 -89 65 0 65 0 0 100 0 100 -63 3 c-46 2 -64 -1 -68 -11z"/>
 </g>

</svg>