<!DOCTYPE svg PUBLIC "-//W3C//DTD SVG 20010904//EN" "http://www.w3.org/TR/2001/REC-SVG-20010904/DTD/svg10.dtd">
<svg version="1.0" xmlns="http://www.w3.org/2000/svg" width="200px" height="200px" viewBox="0 0 2000 2000" preserveAspectRatio="xMidYMid meet">
<g id="layer1" fill="#000000" stroke="none">
 <path d="M0 1000 l0 -1000 1000 0 1000 0 0 1000 0 1000 -1000 0 -1000 0 0 -1000z m1072 388 l3 -353 133 -3 132 -3 0 -72 c0 -40 3 -89 6 -109 l7 -37 -139 -3 -139 -3 -3 -105 c-6 -189 11 -211 162 -218 l103 -4 6 -97 c3 -53 2 -100 -3 -105 -5 -4 -68 -6 -142 -4 -120 4 -139 7 -190 32 -70 33 -108 69 -139 133 -21 42 -24 67 -29 208 l-5 160 -92 3 -93 3 0 109 0 109 93 3 92 3 3 353 2 352 115 0 115 0 2 -352z"/>
 </g>

</svg>