<!DOCTYPE svg PUBLIC "-//W3C//DTD SVG 20010904//EN" "http://www.w3.org/TR/2001/REC-SVG-20010904/DTD/svg10.dtd">
<svg version="1.0" xmlns="http://www.w3.org/2000/svg" width="200px" height="200px" viewBox="0 0 2000 2000" preserveAspectRatio="xMidYMid meet">
<g id="layer1" fill="#212f36" stroke="none">
 <path d="M1660 922 c0 -10 -7 -27 -15 -38 -17 -22 -19 -34 -6 -34 5 0 16 18 25 40 19 47 19 50 6 50 -5 0 -10 -8 -10 -18z"/>
 <path d="M1600 830 c0 -5 7 -10 15 -10 8 0 15 5 15 10 0 6 -7 10 -15 10 -8 0 -15 -4 -15 -10z"/>
 <path d="M370 615 c0 -17 2 -18 24 -9 23 9 20 24 -4 24 -11 0 -20 -7 -20 -15z"/>
 <path d="M480 622 c0 -8 43 -32 55 -32 13 0 3 29 -11 34 -22 9 -44 7 -44 -2z"/>
 <path d="M550 585 c0 -16 27 -32 37 -21 7 7 -16 36 -28 36 -5 0 -9 -7 -9 -15z"/>
 <path d="M296 554 c-9 -24 -7 -28 9 -14 17 14 20 30 6 30 -5 0 -12 -7 -15 -16z"/>
 <path d="M580 541 c0 -5 7 -14 15 -21 13 -10 15 -9 15 9 0 12 -6 21 -15 21 -8 0 -15 -4 -15 -9z"/>
 <path d="M597 400 c-19 -27 -22 -50 -7 -50 13 0 32 38 28 58 -3 14 -6 13 -21 -8z"/>
 <path d="M270 400 c0 -5 7 -10 15 -10 8 0 15 5 15 10 0 6 -7 10 -15 10 -8 0 -15 -4 -15 -10z"/>
 <path d="M332 318 c6 -18 28 -21 28 -4 0 9 -7 16 -16 16 -9 0 -14 -5 -12 -12z"/>
 <path d="M530 320 c0 -5 7 -10 15 -10 8 0 15 5 15 10 0 6 -7 10 -15 10 -8 0 -15 -4 -15 -10z"/>
 </g>
<g id="layer2" fill="#000000" stroke="none">
 <path d="M0 1000 l0 -1000 1000 0 1000 0 0 1000 0 1000 -1000 0 -1000 0 0 -1000z m580 230 l0 -460 -135 0 -135 0 0 460 0 460 135 0 135 0 0 -460z m482 183 c4 -252 6 -282 25 -323 36 -83 104 -119 195 -107 52 7 86 32 112 83 20 36 21 59 24 332 l3 292 135 0 136 0 -4 -357 c-3 -355 -3 -358 -28 -413 -30 -67 -75 -114 -138 -143 -40 -19 -65 -22 -162 -22 -106 0 -119 2 -166 27 -29 15 -67 45 -86 68 -48 55 -58 52 -58 -20 l0 -60 -130 0 -130 0 0 460 0 460 134 0 133 0 5 -277z m-533 -817 c10 -9 22 -16 27 -16 10 0 40 -62 50 -103 27 -118 -107 -213 -229 -162 -52 22 -87 72 -87 126 0 76 16 111 65 145 39 27 53 31 100 29 35 -2 63 -9 74 -19z"/>
 </g>

</svg>