<!DOCTYPE svg PUBLIC "-//W3C//DTD SVG 20010904//EN" "http://www.w3.org/TR/2001/REC-SVG-20010904/DTD/svg10.dtd">
<svg version="1.0" xmlns="http://www.w3.org/2000/svg" width="200px" height="200px" viewBox="0 0 2000 2000" preserveAspectRatio="xMidYMid meet">
<g id="layer1" fill="#000000" stroke="none">
 <path d="M0 1000 l0 -1000 1000 0 1000 0 0 1000 0 1000 -1000 0 -1000 0 0 -1000z m1790 0 l0 -580 -790 0 -790 0 0 580 0 580 790 0 790 0 0 -580z"/>
 <path d="M345 1448 c-11 -28 0 -701 11 -705 6 -2 37 18 69 44 31 26 119 100 195 163 75 63 168 140 205 170 37 30 91 74 119 98 28 23 56 40 62 38 6 -2 94 -73 196 -158 340 -282 428 -353 440 -353 10 0 13 76 13 355 l0 355 -653 3 c-518 2 -654 0 -657 -10z"/>
 <path d="M880 990 c-58 -49 -190 -160 -295 -247 -104 -87 -191 -166 -193 -176 -3 -16 29 -17 610 -15 468 2 613 6 613 15 0 11 -113 108 -400 343 -71 58 -145 120 -166 138 -20 17 -43 32 -50 31 -8 0 -61 -40 -119 -89z"/>
 </g>

</svg>