<!DOCTYPE svg PUBLIC "-//W3C//DTD SVG 20010904//EN" "http://www.w3.org/TR/2001/REC-SVG-20010904/DTD/svg10.dtd">
<svg version="1.0" xmlns="http://www.w3.org/2000/svg" width="200px" height="200px" viewBox="0 0 2000 2000" preserveAspectRatio="xMidYMid meet">
<g id="layer1" fill="#ffffff" stroke="none">
 <path d="M763 1678 c-132 -134 -249 -259 -259 -278 -12 -24 -18 -57 -18 -105 1 -80 22 -131 76 -181 57 -54 95 -69 178 -69 93 0 131 19 214 104 l60 61 65 -64 c37 -35 81 -71 100 -80 46 -24 131 -31 186 -16 55 15 128 77 158 134 29 55 30 163 2 221 -22 47 -481 515 -504 515 -9 0 -125 -109 -258 -242z"/>
 <path d="M380 1264 c-61 -141 -40 -330 54 -498 61 -107 153 -226 177 -226 20 0 21 4 17 55 l-5 55 54 -83 c29 -45 75 -124 101 -176 l47 -94 0 -105 c0 -76 4 -107 13 -110 16 -5 223 146 341 249 150 131 257 284 291 417 l14 52 27 -26 c36 -35 54 -27 84 38 40 88 56 166 56 273 1 114 -16 180 -44 180 -23 0 -55 -83 -67 -175 -5 -36 -12 -81 -16 -100 l-6 -35 -38 44 -38 44 -39 -16 -38 -15 4 -76 c9 -201 -99 -382 -343 -575 l-80 -63 -21 64 c-27 79 -41 105 -133 253 -104 166 -133 233 -141 325 -6 74 -6 75 -43 95 -46 25 -54 19 -83 -70 l-22 -65 -18 62 c-10 35 -19 106 -21 158 -4 140 -14 184 -42 188 -18 3 -26 -5 -42 -44z"/>
 </g>

</svg>