<!DOCTYPE svg PUBLIC "-//W3C//DTD SVG 20010904//EN" "http://www.w3.org/TR/2001/REC-SVG-20010904/DTD/svg10.dtd">
<svg version="1.0" xmlns="http://www.w3.org/2000/svg" width="200px" height="200px" viewBox="0 0 2000 2000" preserveAspectRatio="xMidYMid meet">
<g id="layer1" fill="#000000" stroke="none">
 <path d="M0 1000 l0 -1000 1000 0 1000 0 0 1000 0 1000 -1000 0 -1000 0 0 -1000z m770 700 c50 -74 73 -133 114 -293 18 -70 38 -133 45 -140 9 -9 17 -5 34 15 53 63 208 97 297 65 159 -58 276 -192 316 -363 20 -84 22 -250 5 -324 -30 -128 -121 -249 -227 -303 -239 -121 -509 -95 -715 69 -112 89 -169 203 -177 357 -9 166 39 287 131 335 26 13 51 22 54 18 3 -3 10 -29 14 -57 7 -43 5 -57 -10 -78 -29 -42 -41 -103 -41 -201 0 -85 3 -97 33 -153 42 -80 127 -165 201 -201 119 -58 277 -59 389 -1 70 36 109 76 148 149 29 54 34 72 37 157 5 113 -12 189 -64 296 -75 152 -213 223 -312 163 -72 -44 -79 -137 -23 -331 39 -132 38 -188 -4 -233 -49 -53 -155 -25 -193 51 -31 61 -35 113 -16 205 l17 83 -51 195 c-82 313 -86 332 -79 445 7 110 15 148 28 139 5 -3 27 -32 49 -64z"/>
 </g>

</svg>