<!DOCTYPE svg PUBLIC "-//W3C//DTD SVG 20010904//EN" "http://www.w3.org/TR/2001/REC-SVG-20010904/DTD/svg10.dtd">
<svg version="1.0" xmlns="http://www.w3.org/2000/svg" width="200px" height="200px" viewBox="0 0 2000 2000" preserveAspectRatio="xMidYMid meet">
<g id="layer1" fill="#ffffff" stroke="none">
 <path d="M10 1431 c-5 -11 -10 -38 -10 -60 l0 -41 45 0 45 0 0 -233 c0 -214 2 -235 18 -250 16 -15 49 -17 253 -17 l234 0 -3 -124 c-3 -115 -1 -127 17 -145 21 -21 30 -21 504 -21 462 0 485 1 501 19 15 16 17 38 14 160 l-3 141 62 0 c80 0 83 6 83 151 0 108 1 111 18 96 24 -22 173 -24 191 -3 8 9 11 65 9 177 l-3 164 -94 3 c-74 2 -97 -1 -111 -13 -15 -14 -18 -14 -30 0 -10 13 -47 15 -224 15 -152 0 -215 -3 -224 -12 -7 -7 -12 -43 -12 -93 l0 -81 -40 4 c-36 4 -40 6 -34 26 7 23 38 82 56 107 6 9 8 24 5 33 -6 14 -28 16 -177 16 -145 0 -172 -2 -177 -16 -3 -8 4 -25 16 -38 12 -13 31 -46 41 -75 l20 -51 -95 0 -95 0 0 30 c0 28 2 30 38 30 21 0 43 5 50 12 17 17 15 59 -4 86 l-15 22 -429 0 c-414 0 -430 -1 -440 -19z m1650 -276 l0 -195 -135 0 -135 0 0 195 0 195 135 0 135 0 0 -195z m270 115 l0 -80 -45 0 -45 0 0 80 0 80 45 0 45 0 0 -80z m-1230 -185 l0 -145 -250 0 -250 0 0 145 0 145 250 0 250 0 0 -145z m602 -212 c7 -9 41 -13 117 -13 l106 0 -3 -105 -3 -105 -410 0 -409 0 0 90 0 90 37 0 c68 0 73 13 73 181 l0 149 238 2 237 3 3 -139 c1 -82 7 -145 14 -153z"/>
 </g>

</svg>